<svg width="400" height="400" viewBox="0 0 100 100" fill="none" xmlns="http://www.w3.org/2000/svg" role="img" aria-label="StrydeOS">
  <defs>
    <linearGradient id="cream-c" x1="0.1" y1="0" x2="0.85" y2="1">
      <stop offset="0%" stop-color="#2E6BFF" stop-opacity="0.58"/>
      <stop offset="100%" stop-color="#091D3E" stop-opacity="0.72"/>
    </linearGradient>
    <radialGradient id="cream-r" cx="28%" cy="24%" r="60%">
      <stop offset="0%" stop-color="#6AABFF" stop-opacity="0.42"/>
      <stop offset="100%" stop-color="#1C54F2" stop-opacity="0"/>
    </radialGradient>
    <linearGradient id="cream-t" x1="0.05" y1="1" x2="0.35" y2="0">
      <stop offset="0%" stop-color="white" stop-opacity="0.55"/>
      <stop offset="100%" stop-color="white" stop-opacity="0.97"/>
    </linearGradient>
    <linearGradient id="cream-m" x1="0" y1="0" x2="1" y2="0">
      <stop offset="0%" stop-color="white" stop-opacity="0"/>
      <stop offset="28%" stop-color="white" stop-opacity="0.60"/>
      <stop offset="65%" stop-color="white" stop-opacity="0.12"/>
      <stop offset="100%" stop-color="white" stop-opacity="0"/>
    </linearGradient>
    <linearGradient id="cream-b" x1="0.1" y1="0" x2="0.4" y2="1">
      <stop offset="0%" stop-color="#7ABBFF" stop-opacity="0.65"/>
      <stop offset="100%" stop-color="#1C54F2" stop-opacity="0.06"/>
    </linearGradient>
    <clipPath id="cream-p"><rect x="35" y="20" width="22" height="60" rx="5"/></clipPath>
    <clipPath id="cream-a"><polygon points="35,52 57,40 57,20 35,20"/></clipPath>
  </defs>
  <rect width="100" height="100" rx="24" fill="url(#cream-c)"/>
  <rect width="100" height="100" rx="24" fill="url(#cream-r)"/>
  <rect width="100" height="100" rx="24" fill="none" stroke="url(#cream-b)" stroke-width="1.2"/>
  <path d="M 17 21 Q 50 12 83 21" stroke="url(#cream-m)" stroke-width="1.5" fill="none" stroke-linecap="round"/>
  <rect x="35" y="20" width="22" height="60" rx="5" fill="white" fill-opacity="0.07"/>
  <rect x="35" y="46" width="22" height="34" rx="5" fill="black" fill-opacity="0.10"/>
  <g clip-path="url(#cream-p)">
    <polyline points="32,80 46,72 60,80" stroke="#1C54F2" stroke-opacity="0.30" stroke-width="2" stroke-linecap="round" stroke-linejoin="round" fill="none"/>
    <polyline points="32,72 46,64 60,72" stroke="#1C54F2" stroke-opacity="0.55" stroke-width="2.5" stroke-linecap="round" stroke-linejoin="round" fill="none"/>
    <polyline points="32,64 46,56 60,64" stroke="#1C54F2" stroke-opacity="0.85" stroke-width="3.2" stroke-linecap="round" stroke-linejoin="round" fill="none"/>
  </g>
  <rect x="35" y="20" width="22" height="60" rx="5" fill="url(#cream-t)" clip-path="url(#cream-a)"/>
  <line x1="33" y1="52" x2="59" y2="39" stroke="white" stroke-width="1.2" stroke-opacity="0.55" stroke-linecap="round"/>
</svg>
