<svg xmlns="http://www.w3.org/2000/svg" viewBox="0 0 152 130"><path fill="#FFF" d="M76.761 57.65c-4.588 0-7.924-2.453-9.168-3.53a2.23 2.23 0 01-.223-3.142 2.231 2.231 0 013.142-.223c1.848 1.604 4.263 2.532 6.535 2.438 3.099-.104 5.256-1.728 6.038-2.422a2.226 2.226 0 112.954 3.334c-2.422 2.145-5.644 3.434-8.847 3.541-.144.004-.285.004-.431.004z"/><path fill="#91D3F3" d="M95.698 18.748c.338-.214.675-.42 1.02-.615-.346.195-.683.405-1.02.615zM97.773 17.579c.262-.13.519-.259.79-.38-.269.117-.525.249-.79.38zM92.572 21.167c.081-.075.162-.147.243-.224-.081.078-.161.149-.243.224zM94.018 19.943z"/><path fill="#91D3F3" d="M92.815 20.946zM94.825 19.336zM96.718 18.133z" opacity=".3"/><path fill="#6AD1E3" d="M40.092 10.973c.188-.196.336-.449.445-.783.235-.719.667-1.299 1.255-1.775 1.154-.928 2.654-1.402 4.076-1.734 3.243-.757 6.764-.757 10.021-.102 2.226.444 5.559 1.386 6.263 3.896.279.986.809 1.034 1.749 1.16 1.076.142 5.389.985 6.52 1.245.435.1 1.931.632 2.056-.106.067-.403-.512-1.165-.735-1.492a25.725 25.725 0 00-1.187-1.613 24.924 24.924 0 00-2.733-2.914 24.996 24.996 0 00-6.693-4.375A25.01 25.01 0 0050.94.211a25.212 25.212 0 00-14.605 4.673 25.494 25.494 0 00-4.182 3.756c-.484.545-3.503 3.824-2.481 4.376.449.244 1.459-.005 2.016-.137 2.646-.627 6.34-1.186 7.22-1.334.507-.084.889-.273 1.184-.572z"/><path fill="#FFF" d="M51.231 20.386c3.006.006 6.847-6.74 6.669-7.992-.523-3.753-12.873-3.816-13.137-.008-.083 1.244 3.481 7.994 6.468 8z"/><path fill="#91D3F3" d="M27.206 125.003v.033a1.14 1.14 0 01.008-.095c-.001.023-.005.04-.008.062z"/><path fill="#6AD1E3" d="M75.643 20.62a22.49 22.49 0 00-.462-1.914c-.272-.957-.438-1.272-1.408-1.622-.948-.336-4.604-1.489-10.06-2.064-1.401-.147-2.598-.585-3.449.694-.865 1.298-1.613 2.637-2.601 3.857-1.527 1.896-3.832 4.521-6.501 4.519-2.384-.004-4.415-2.209-5.806-3.901-.91-1.107-1.708-2.294-2.456-3.518-1.729-2.82-4.395-1.754-7.175-1.25-1.878.338-7.432 1.636-8.151 2.055-.581.338-.853 1.027-1.005 1.624a23.596 23.596 0 00-.442 2.074 24.924 24.924 0 00-.361 4.214c0 3.325.657 6.641 1.944 9.707 1.906 4.552 5.173 8.487 9.28 11.227a24.63 24.63 0 003.224 1.821c.624.294 1.558.58 1.434 1.438-.187 1.233-2.588 2.078-3.545 2.562-3.809 1.934-7.388 4.315-10.692 7.025-4.674 3.841-8.775 8.363-12.22 13.328-4.526 6.526-7.906 13.798-10.285 21.363C1.744 103.924.317 114.479.025 125c-.005.076-.025.155-.025.232 0 .061.016.114.017.171.092 2.431 2.08 4.383 4.535 4.383h10.112a4.55 4.55 0 004.429-3.531c.037-.357.078-.724.118-1.084 1.014-9.211 3.222-21.424 8.042-31.051 5.631-11.266 14.054-21.333 24.794-28.033a49.697 49.697 0 014.632-2.567c2.049-.988 4.454-1.744 2.505-4.188-2.148-2.695-3.751-5.707-4.557-9.075a22.062 22.062 0 01-.627-5.18c0-9.494 6.252-18.152 15.261-21.143a21.857 21.857 0 013.736-.888c1.035-.155 1.927-.227 2.383-.741.298-.331.407-.848.263-1.685z"/><path fill="#05C3DE" d="M151.974 124.629c-.469-10.403-2.419-20.778-6.246-30.482-2.876-7.296-6.804-14.181-11.713-20.299-3.396-4.229-7.255-8.106-11.529-11.445a61.305 61.305 0 00-2.645-1.954c-.572-.394-1.697-.965-1.896-1.684-.028-.088-.033-.167-.039-.246-.005-.809 1.162-1.184 1.797-1.578a22.712 22.712 0 005.625-4.937 22.605 22.605 0 005.073-14.24c0-12.468-10.108-22.573-22.573-22.573-3.307 0-6.44.73-9.27 2.007-.269.119-.524.249-.79.38-.359.176-.71.36-1.059.554-.344.195-.682.404-1.02.616a19.16 19.16 0 00-.87.586c-.273.195-.542.398-.808.606a19.583 19.583 0 00-1.446 1.225c-1.226 1.153-4.708 4.126-3.035 5.987.631.699 1.549 1.233 2.236 1.894a22.362 22.362 0 013.662 4.6 22.294 22.294 0 013.158 11.428c0 4.195-1.181 8.104-3.223 11.5-.173.315-.365.617-.558.921-.013.023-.03.045-.044.066-.038.06-.088.114-.131.175-.848 1.246-1.938 2.334-.556 3.504.667.57 1.416 1.057 2.145 1.543 2.329 1.57 4.674 3.107 6.924 4.788 7.301 5.46 13.584 12.156 18.445 19.883a78.629 78.629 0 013.743 6.662c4.851 9.691 7.055 22 8.064 31.229v.055c.004.104.033.204.044.31.24 2.285 2.144 4.073 4.491 4.073h9.547c2.411 0 4.362-1.884 4.521-4.253a56.275 56.275 0 00-.024-.901z"/><path fill="none" d="M77.252 118.245c-.04.017-.072.041-.113.061.041-.02.071-.044.113-.061z"/><path fill="#FFF" d="M125.42 125.343c-.041-.359-.062-.708-.108-1.062-.712-5.921-1.894-11.76-3.642-17.388-2.634-8.469-6.529-16.46-11.772-23.112-4.539-5.763-10.099-10.498-16.369-13.377-2.225-1.023-4.523-1.812-6.877-2.319-1.854-.408-5.209-1.097-6.402.264-.451.525-.696 1.347-.61 2.601.195 2.93.541 5.865.825 8.784.507 5.163 1.02 10.328 1.534 15.492.26 2.609.516 5.215.789 7.816.137 1.307.689 6.105.625 7.188-.131 2.252-4.902 6.858-5.648 7.661-.031.036-.08.047-.114.078l.004.052c-.12.098-.267.149-.409.223-.041.019-.069.045-.11.059-.814.345-1.814.196-2.335-.364-.745-.808-5.52-5.412-5.649-7.662-.063-1.079.487-5.878.624-7.187.274-2.603.53-5.211.789-7.817.047-.43.085-.855.128-1.288 0 0 .98-10.8 1.497-15.752.279-2.677.716-5.415.759-8.116.064-4.169-4.919-2.504-7.148-2.006a33.483 33.483 0 00-6.778 2.306c-6.263 2.889-11.817 7.625-16.354 13.39-5.24 6.65-9.13 14.64-11.755 23.102-1.809 5.835-3.002 11.896-3.703 18.032a1.86 1.86 0 00-.008.096c-.004.124-.004.248-.007.369.091 2.435 2.079 4.386 4.532 4.386H120.9c2.41 0 4.364-1.886 4.524-4.254.002-.065-.004-.131-.004-.195z"/><path fill="#1C94DC" d="M77.658 118.022l-.005-.053a1.7 1.7 0 01-.405.275c.141-.069.291-.123.41-.222z"/></svg>