<svg xmlns="http://www.w3.org/2000/svg" xmlns:xlink="http://www.w3.org/1999/xlink" width="74.08mm" height="25.37mm" viewBox="0 0 210 71.92"><defs><style>.cls-1{fill:#0B2545;}.cls-2{fill:url(#linear-gradient);}.cls-3{fill:url(#linear-gradient-2);}.cls-4{fill:url(#linear-gradient-3);}</style><linearGradient id="linear-gradient" x1="-10956.74" y1="-1568.87" x2="-10924.49" y2="-1586.74" gradientTransform="matrix(-0.71, -0.71, 0.65, -0.65, -6682.92, -8720.94)" gradientUnits="userSpaceOnUse"><stop offset="0" stop-color="#00a8d7"/><stop offset="1" stop-color="#afdef2"/></linearGradient><linearGradient id="linear-gradient-2" x1="32.68" y1="28.28" x2="85.43" y2="28.28" gradientUnits="userSpaceOnUse"><stop offset="0" stop-color="#8abd24"/><stop offset="1" stop-color="#e0ebc5"/></linearGradient><linearGradient id="linear-gradient-3" x1="24.44" y1="45.85" x2="46.77" y2="45.85" gradientUnits="userSpaceOnUse"><stop offset="0" stop-color="#008f9d"/><stop offset="1" stop-color="#88c5ce"/></linearGradient></defs><g id="Layer_2" data-name="Layer 2"><g id="Logo"><path class="cls-1" d="M101.08,43.25H95.53L89.21,25.3A7.34,7.34,0,0,1,92,24.8a3.82,3.82,0,0,1,1.63.31,2.62,2.62,0,0,1,1.11,1,9.72,9.72,0,0,1,.9,2.3l2.75,9.87,2.91-10a8.56,8.56,0,0,1,.81-2.08,2.81,2.81,0,0,1,1-1.06,3.28,3.28,0,0,1,1.59-.34,6.52,6.52,0,0,1,2.6.5Z"/><path class="cls-1" d="M114.29,18.83a2.62,2.62,0,0,1-.81,2,3,3,0,0,1-4,0,2.68,2.68,0,0,1-.78-2,2.74,2.74,0,0,1,.78-2,2.81,2.81,0,0,1,4.81,2Zm0,24.46a5.9,5.9,0,0,1-1.84.15,3.6,3.6,0,0,1-2.58-.76,3.23,3.23,0,0,1-.79-2.42V25l.69-.09a10.3,10.3,0,0,1,1.07-.06q3.45,0,3.45,3Z"/><path class="cls-1" d="M118.46,40.3A10.66,10.66,0,0,1,118,37V19.25l.57-.08a11.13,11.13,0,0,1,1.19-.07q3.44,0,3.44,3.06v2.68h5.36v3.9h-5.36v8.19c0,1.79.73,2.68,2.18,2.68a3.55,3.55,0,0,0,1.57-.38,4.6,4.6,0,0,0,1.38-1,10.9,10.9,0,0,1,.94,1.57,2.61,2.61,0,0,1,.25,1,1.83,1.83,0,0,1-.81,1.38,5.73,5.73,0,0,1-2,1,9.69,9.69,0,0,1-2.7.36Q119.68,43.63,118.46,40.3Z"/><path class="cls-1" d="M146.52,38.62a8.51,8.51,0,0,0,.88,4.4,7.37,7.37,0,0,1-2.53.5,3.58,3.58,0,0,1-2-.5,2.45,2.45,0,0,1-1-1.57A6,6,0,0,1,139.49,43a9,9,0,0,1-3.19.54,6,6,0,0,1-4.23-1.48,5.29,5.29,0,0,1-1.63-4.15q0-5.94,9.38-6.43c.4,0,1,0,1.72,0v-.69a2.52,2.52,0,0,0-.77-2.05,4.05,4.05,0,0,0-2.56-.63,8.45,8.45,0,0,0-2.37.35,15.08,15.08,0,0,0-3.07,1.41,5.18,5.18,0,0,1-.84-1.38,3.38,3.38,0,0,1-.34-1.22c0-.48.37-.95,1.13-1.4a10.07,10.07,0,0,1,2.81-1.05,15.93,15.93,0,0,1,3.48-.38q4,0,5.74,1.64t1.77,5.36Zm-4.9-4.44h-.54a3.27,3.27,0,0,0-.54,0,8.36,8.36,0,0,0-4,1,2.65,2.65,0,0,0-1.22,2.32,2.51,2.51,0,0,0,.69,1.89,2.72,2.72,0,0,0,2,.67,4.75,4.75,0,0,0,2.47-.67c.75-.44,1.13-.9,1.13-1.36Z"/><path class="cls-1" d="M90.71,56.09a5.08,5.08,0,0,1,1.82-1.18,6.65,6.65,0,0,1,2.4-.43,4.32,4.32,0,0,1,2.51.68,2.94,2.94,0,0,1,1.23,1.89,9.3,9.3,0,0,1,.2,2.23v7.14H97.42V59.28a6,6,0,0,0-.23-1.88c-.32-1.07-1.23-1.61-2.74-1.61a5.59,5.59,0,0,0-1.81.3,4.89,4.89,0,0,0-1.41.73,1.12,1.12,0,0,0-.52.8v8.8H89.27V48.6l.26,0a1.16,1.16,0,0,1,.86.31,1.3,1.3,0,0,1,.32,1Z"/><path class="cls-1" d="M111.18,65c0,.25-.21.53-.65.84a4.9,4.9,0,0,1-1.53.71,6.59,6.59,0,0,1-1.84.25,5.17,5.17,0,0,1-4.1-1.6,6.86,6.86,0,0,1-1.42-4.68,7.37,7.37,0,0,1,.66-3.24,4.89,4.89,0,0,1,1.87-2.07,5.22,5.22,0,0,1,2.72-.72,4.29,4.29,0,0,1,3.39,1.37,5.45,5.45,0,0,1,1.21,3.71,11.72,11.72,0,0,1-.08,1.28h-8.24a5.48,5.48,0,0,0,1.08,3.53,3.67,3.67,0,0,0,3,1.22,4.83,4.83,0,0,0,2.06-.42,3.18,3.18,0,0,0,1.36-1.06A1.8,1.8,0,0,1,111.18,65Zm-1.13-5.23c0-2.71-1.09-4.07-3.29-4.07a3.25,3.25,0,0,0-2.56,1.08,4.57,4.57,0,0,0-1,3Z"/><path class="cls-1" d="M123.7,66.42a4,4,0,0,1-.91.12,2.12,2.12,0,0,1-1.36-.41,1.63,1.63,0,0,1-.55-1.17,5.55,5.55,0,0,1-4.07,1.68,3.9,3.9,0,0,1-2.7-.88,3.2,3.2,0,0,1-1-2.53,3.31,3.31,0,0,1,.8-2.25,5.17,5.17,0,0,1,2.34-1.41,11.27,11.27,0,0,1,3.47-.49h.57l.56,0v-.6a2.88,2.88,0,0,0-.69-2.15,3.18,3.18,0,0,0-2.23-.67A6.68,6.68,0,0,0,116,56a5,5,0,0,0-1.56.78h-.22a1.54,1.54,0,0,1-.35-.83c0-.22.21-.44.65-.68a5.9,5.9,0,0,1,1.61-.56,8.49,8.49,0,0,1,1.91-.22,4.51,4.51,0,0,1,3.25,1,4.53,4.53,0,0,1,1,3.29v5a5.72,5.72,0,0,0,.1,1.14,1.23,1.23,0,0,0,.36.67,1.55,1.55,0,0,0,.93.27Zm-2.82-6.26a1.56,1.56,0,0,0-.31,0h-.34c-3.74,0-5.6,1-5.6,3a2.24,2.24,0,0,0,.61,1.68,2.51,2.51,0,0,0,1.82.6,4.65,4.65,0,0,0,1.82-.35,5,5,0,0,0,1.44-.84c.37-.33.56-.6.56-.82Z"/><path class="cls-1" d="M125.71,48.6l.25,0a1.2,1.2,0,0,1,.88.33,1.3,1.3,0,0,1,.32,1V64.11a3.41,3.41,0,0,0,.12,1,.94.94,0,0,0,.37.55,1.68,1.68,0,0,0,.79.23v.53a4.16,4.16,0,0,1-1,.12,1.82,1.82,0,0,1-1-.24,1.34,1.34,0,0,1-.55-.74,5.2,5.2,0,0,1-.17-1.6Z"/><path class="cls-1" d="M135.93,54.68v1.16H132V63.2c0,1.59.61,2.39,1.84,2.39a2.69,2.69,0,0,0,1.6-.55,3.4,3.4,0,0,0,.58-.56c.39.39.58.67.58.86s-.16.38-.48.64a3.44,3.44,0,0,1-1.1.6,4.13,4.13,0,0,1-1.31.21A2.69,2.69,0,0,1,130.83,65a6.83,6.83,0,0,1-.25-2.09V51.09a.93.93,0,0,1,.23,0,1.24,1.24,0,0,1,.88.32,1.34,1.34,0,0,1,.32,1v2.33Z"/><path class="cls-1" d="M139.8,56.09a5.17,5.17,0,0,1,1.82-1.18,6.65,6.65,0,0,1,2.4-.43,4.32,4.32,0,0,1,2.51.68,2.87,2.87,0,0,1,1.23,1.89,9.22,9.22,0,0,1,.21,2.23v7.14h-1.46V59.28a6,6,0,0,0-.23-1.88c-.32-1.07-1.23-1.61-2.74-1.61a5.59,5.59,0,0,0-1.81.3,4.69,4.69,0,0,0-1.4.73,1.14,1.14,0,0,0-.53.8v8.8h-1.43V48.6l.25,0a1.17,1.17,0,0,1,.87.31,1.29,1.29,0,0,1,.31,1Z"/><path class="cls-1" d="M164,65.59a13.35,13.35,0,0,1-.25,2.89q-.83,3.43-5.28,3.44a8.05,8.05,0,0,1-2.19-.29,4.07,4.07,0,0,1-1.55-.74,1,1,0,0,1-.38-.68.76.76,0,0,1,.17-.41,2.51,2.51,0,0,1,.41-.47,3.13,3.13,0,0,0,.88.71,4.75,4.75,0,0,0,2.64.67q3.57,0,4-2.86a16.58,16.58,0,0,0,.15-2.41V65A5,5,0,0,1,161,66.12a5,5,0,0,1-1.84.32,4.69,4.69,0,0,1-3.73-1.58A6.57,6.57,0,0,1,154,60.44a7.46,7.46,0,0,1,.67-3.33,4.87,4.87,0,0,1,1.88-2.1,5.2,5.2,0,0,1,2.7-.73,4.86,4.86,0,0,1,1.4.18,3.89,3.89,0,0,1,1,.43,3.31,3.31,0,0,1,.6.46l.29.29a1.11,1.11,0,0,1,.33-.84,1.09,1.09,0,0,1,.8-.32,1.26,1.26,0,0,1,.3,0Zm-8.39-5.33a6,6,0,0,0,1,3.66,3.31,3.31,0,0,0,2.81,1.29,4,4,0,0,0,1.57-.29,3.25,3.25,0,0,0,1.16-.73,1.26,1.26,0,0,0,.44-.86V57a3.83,3.83,0,0,0-3.07-1.46,3.5,3.5,0,0,0-2.9,1.22A5.5,5.5,0,0,0,155.58,60.26Z"/><path class="cls-1" d="M168.8,55.84A3.31,3.31,0,0,1,170,54.71a3,3,0,0,1,1.57-.43,2.82,2.82,0,0,1,1.22.23.7.7,0,0,1,.46.65,1.2,1.2,0,0,1-.14.53,2.16,2.16,0,0,1-.33.53,2,2,0,0,0-.68-.46,2.79,2.79,0,0,0-.88-.12,2.58,2.58,0,0,0-1.67.6,1.72,1.72,0,0,0-.74,1.36v8.62h-1.44V54.48h.1a1.3,1.3,0,0,1,1,.36A1.32,1.32,0,0,1,168.8,55.84Z"/><path class="cls-1" d="M184.3,60.41a6.84,6.84,0,0,1-1.4,4.53A5.56,5.56,0,0,1,175,65a6.66,6.66,0,0,1-1.39-4.47,7.48,7.48,0,0,1,.69-3.27A5.1,5.1,0,0,1,176.22,55a5.19,5.19,0,0,1,2.83-.76,4.8,4.8,0,0,1,3.88,1.64A6.77,6.77,0,0,1,184.3,60.41Zm-1.54,0a5.93,5.93,0,0,0-.95-3.67,3.77,3.77,0,0,0-5.65.09,5.79,5.79,0,0,0-1,3.58,6,6,0,0,0,1,3.68,3.3,3.3,0,0,0,2.83,1.3,3.39,3.39,0,0,0,2.85-1.27A6.08,6.08,0,0,0,182.76,60.41Z"/><path class="cls-1" d="M196.68,66.22h-1.45V64.86A5,5,0,0,1,193.39,66a6.84,6.84,0,0,1-2.38.41,4.31,4.31,0,0,1-2.54-.69,2.84,2.84,0,0,1-1.21-1.87,10,10,0,0,1-.2-2.24V54.48h.1a1.19,1.19,0,0,1,1.33,1.36v5.8a6.18,6.18,0,0,0,.25,1.89c.32,1.07,1.27,1.61,2.84,1.61a5.1,5.1,0,0,0,1.75-.32,4.86,4.86,0,0,0,1.39-.73,1.07,1.07,0,0,0,.53-.79V54.48h.1c.89,0,1.33.46,1.33,1.39Z"/><path class="cls-1" d="M200.08,71.69V54.48h.1c.88,0,1.33.42,1.33,1.26a4.85,4.85,0,0,1,1.61-1.06,5.15,5.15,0,0,1,2-.4,4.45,4.45,0,0,1,3.62,1.55A6.83,6.83,0,0,1,210,60.29a8.42,8.42,0,0,1-.63,3.44,4.68,4.68,0,0,1-1.79,2.13,4.94,4.94,0,0,1-2.68.73,5.12,5.12,0,0,1-1.8-.3,4.11,4.11,0,0,1-1.1-.59,3,3,0,0,1-.49-.44v6.43Zm8.39-11.23a6.19,6.19,0,0,0-.92-3.67,3.17,3.17,0,0,0-2.73-1.25,4.85,4.85,0,0,0-1.86.35,2.84,2.84,0,0,0-1.25.93.89.89,0,0,0-.2.55v6.56A4.11,4.11,0,0,0,202.9,65a4.16,4.16,0,0,0,1.77.4,3.35,3.35,0,0,0,2.83-1.26A6,6,0,0,0,208.47,60.46Z"/><path class="cls-2" d="M32.68,30.72C23.74,22.61,12.13,18.72,0,18.86-.15,31.71,4.22,44,13.35,53.11S34.75,66.6,47.59,66.45a52.41,52.41,0,0,0-.82-9.89A64.52,64.52,0,0,1,24.44,61,63.41,63.41,0,0,1,32.68,30.72Z"/><path class="cls-3" d="M85.43,0a62.14,62.14,0,0,0-43,18,60.05,60.05,0,0,0-9.72,12.76c.53.48,1,1,1.57,1.49A45.38,45.38,0,0,1,46.77,56.56,60.53,60.53,0,0,0,67.46,43,62.13,62.13,0,0,0,85.43,0Z"/><path class="cls-4" d="M34.25,32.21c-.52-.52-1-1-1.57-1.49A63.41,63.41,0,0,0,24.44,61a64.52,64.52,0,0,0,22.33-4.43A45.38,45.38,0,0,0,34.25,32.21Z"/></g></g></svg>