<svg width="122" height="51" viewBox="0 0 122 51" fill="none" xmlns="http://www.w3.org/2000/svg">
<g clip-path="url(#clip0_272_8792)">
<g clip-path="url(#clip1_272_8792)">
<path d="M6.74121 38.7293C5.24986 38.9607 3.29568 37.2123 3.06426 35.6695C2.55 32.4297 6.30409 21.5274 7.28118 13.9678C7.40974 13.0678 8.36112 12.6564 9.05537 12.5536C10.2382 12.3736 12.6809 12.9907 12.9123 14.3792C12.9637 14.7392 12.8095 15.022 12.6552 15.2791C10.6753 19.0332 7.33261 28.7013 6.81835 31.2469C6.79263 31.3497 6.81835 31.3754 6.81835 31.4526C6.84406 31.6068 6.9212 31.6583 7.04976 31.6583C7.17833 31.6326 7.33261 31.5554 7.46117 31.4011C9.82676 27.1071 12.3466 19.9075 14.6094 15.4591C14.8922 14.9449 15.2522 14.7392 15.6379 14.6877C16.8464 14.5078 18.3635 15.9477 18.5177 16.9248C18.5692 17.3105 18.4663 17.5933 18.1835 17.9019C15.9721 22.5559 15.535 26.9528 15.175 28.6756C15.1493 28.7784 15.175 28.8041 15.175 28.8813C15.2008 29.0356 15.2779 29.087 15.4065 29.087C15.535 29.0613 15.6893 28.9841 15.8179 28.8299C18.1835 24.5358 22.9404 12.6821 25.1774 8.2338C25.3831 7.59098 26.0002 7.28242 26.6173 7.17957C27.9801 6.97386 29.6771 7.95095 29.9343 9.57087C29.9857 9.95656 29.8828 10.2394 29.5743 10.5737C22.7089 18.8532 19.5977 30.1155 17.4892 34.8467C17.3092 35.1809 16.5893 35.5152 15.715 35.6438C14.3008 35.8495 12.6038 35.5666 12.3466 33.9982C12.2181 31.504 12.5009 28.8041 12.8866 26.13C10.9581 29.7555 9.85247 33.7153 8.12971 37.598C7.76973 38.2665 7.28118 38.6522 6.74121 38.7293ZM38.2395 12.9136C38.1367 12.2707 38.291 11.7308 38.471 11.705C39.8595 11.6279 41.5051 11.4222 43.2021 11.1651C43.8192 9.44231 44.2564 8.05381 44.4106 7.30813C44.5906 6.53674 45.2592 6.2539 45.7991 6.17676C46.7505 6.02249 48.499 6.97386 48.679 8.05381C48.7304 8.33665 48.679 8.6452 48.5761 8.85091C48.3704 9.26231 48.139 9.77657 47.8819 10.3423C51.1989 9.72515 54.3616 9.10804 56.5471 8.77377C57.7299 8.6452 56.6757 10.2394 56.5471 10.548C56.1615 11.6793 50.9932 12.9907 46.2877 13.8392C43.6907 19.6503 40.2966 27.6728 40.5794 29.4984C40.6308 29.8069 40.7594 29.9869 41.0165 29.9612C41.1965 29.9355 41.5051 29.7555 41.8908 29.4213C42.3536 29.0098 43.8192 27.5185 44.9506 25.5129C45.722 24.3044 48.2419 19.9589 48.7047 19.0847C48.7818 18.9304 48.8333 18.879 48.9361 18.8532C49.219 18.8018 49.5018 19.3932 49.5018 19.3932C48.859 20.9103 47.3419 23.893 45.9534 26.6185C45.1563 28.187 43.4336 30.8355 42.3536 32.0183C42.1222 32.2497 41.8908 32.3782 41.5565 32.4297C40.2194 32.6354 38.2395 31.2983 38.0081 29.8584C37.6481 27.5185 40.0652 20.3189 42.0451 14.5335L41.1451 14.662C39.0881 14.9706 38.3938 13.8906 38.2395 12.9136ZM49.8875 27.1585C49.8875 27.6213 49.9389 28.0585 49.9904 28.4956C50.0932 29.1898 50.4789 29.5755 51.1989 29.447C53.4102 29.1127 55.5701 26.3871 57.3185 23.5844C58.0899 22.3759 58.5528 21.476 58.9899 20.576C59.067 20.4217 59.4013 19.7018 59.4784 19.6503C60.8669 18.9047 61.304 19.4189 62.1011 19.5732C62.6925 19.6761 62.744 20.4989 62.4868 20.8588C61.664 22.0416 61.7412 21.9902 59.0413 25.77C56.8557 28.8299 53.873 31.0669 51.8674 31.3754C50.6589 31.5554 47.3419 30.2184 46.9562 27.7756C46.2106 22.993 49.6047 14.8677 53.1273 14.6106C54.8758 14.482 56.2643 15.2534 56.7014 15.5363C57.7299 16.4876 57.9614 17.079 57.9099 18.519C58.1671 20.036 52.4074 25.2815 49.8875 27.1585ZM55.1329 18.5447C55.1587 18.2618 54.7215 18.4418 54.6187 18.4418C52.4588 19.3418 50.736 22.2473 50.1446 25.2043C53.6159 21.9645 55.1072 18.8275 55.1329 18.5447ZM79.6631 1.31702C79.8174 0.854188 80.0231 0.339929 80.7173 0.237077C81.823 0.0570867 84.7542 -0.200043 84.9856 1.36845C85.0371 1.72843 84.8828 2.03698 84.6514 2.39696C83.2886 4.53114 76.2433 20.576 76.9632 25.3586C76.9889 25.5386 77.1175 26.4643 77.1689 26.6185C77.3232 27.1585 76.7832 27.6728 76.269 28.0585C74.829 29.1127 74.1862 26.8242 73.9805 25.7957C73.0291 27.3899 71.0235 28.8813 69.1722 29.1641C67.3466 29.447 65.6752 28.5984 65.2124 25.5386C64.7239 22.4788 65.5981 18.3133 66.3438 15.8962C68.0151 10.5737 69.7122 5.58537 69.7636 4.8654C69.8407 3.96545 70.7921 3.55404 71.5121 3.45119C72.6949 3.2712 75.0347 3.68261 75.2405 5.07111C75.2919 5.43109 75.1376 5.71393 74.9833 5.97106C74.0062 7.82239 72.232 12.7078 70.8435 16.1791C69.3522 19.8818 68.6065 23.4044 68.8636 25.0758C69.0436 26.2071 69.3265 26.5671 69.7122 26.5157C71.9749 26.1557 74.0319 19.2646 74.9319 16.9762C76.5004 12.8364 78.0689 5.89392 79.6631 1.31702ZM88.4055 9.46802C89.1769 9.15946 89.9482 8.82519 90.6425 8.72234C91.5939 8.56807 92.3653 8.85091 92.571 10.1623C93.0852 13.5307 89.7683 22.7359 86.2713 23.2759C85.4742 23.4044 84.6771 23.0959 83.9057 22.1702C83.1086 24.8186 82.3115 28.0585 81.3344 32.3525C81.2316 32.8925 81.1287 33.0982 80.6659 33.1753C80.1773 33.2525 78.0946 32.5839 77.8889 31.3497C77.8632 31.2212 77.8889 31.0669 77.9146 30.8869C81.1287 21.6559 82.98 15.2791 84.6257 8.33665C84.8057 7.56526 85.4742 7.28242 86.0142 7.20528C86.9655 7.051 88.2255 8.00238 88.4055 9.08232C88.4312 9.2366 88.4312 9.36517 88.4055 9.46802ZM84.3685 20.6017C84.8057 20.9617 85.2171 21.0645 85.6028 20.9874C86.657 20.8331 89.2026 15.022 88.894 13.0164C88.8169 12.5279 88.5855 12.2707 88.1226 12.3479C87.9941 12.3736 87.5827 12.4764 87.2484 12.5793C86.2456 15.1763 85.3456 17.5419 84.3685 20.6017ZM99.0763 7.79668C99.8477 7.48812 100.619 7.15385 101.313 7.051C102.265 6.89673 103.036 7.17957 103.242 8.49093C103.756 11.8593 100.439 21.0646 96.9422 21.6045C96.1451 21.7331 95.348 21.4245 94.5766 20.4989C93.7795 23.1473 92.9824 26.3871 92.0053 30.6812C91.9024 31.2212 91.7996 31.4269 91.3367 31.504C90.8482 31.5811 88.7654 30.9126 88.5597 29.6784C88.534 29.5498 88.534 29.3955 88.5855 29.2155C91.7996 19.9846 93.6509 13.6078 95.2965 6.66531C95.4765 5.89392 96.1451 5.61108 96.685 5.53394C97.6364 5.37966 98.8963 6.33104 99.0763 7.41098C99.1021 7.56526 99.1021 7.71954 99.0763 7.79668ZM95.0394 18.9304C95.4765 19.2904 95.8879 19.3932 96.2736 19.3161C97.3279 19.1618 99.8734 13.3507 99.5649 11.3451C99.4877 10.8565 99.2563 10.5994 98.8192 10.6765C98.6906 10.7022 98.2792 10.8051 97.945 10.9079C96.9164 13.5049 96.0165 15.8705 95.0394 18.9304ZM28.9058 24.3044C28.6229 24.2272 28.3144 24.1244 28.0058 23.9958C28.0315 26.7985 26.5402 31.4783 25.4088 33.7924C24.8945 34.8724 24.1746 35.3867 23.1718 34.8981C21.3462 33.9982 22.2461 32.5582 22.5804 32.0697C22.6832 31.9154 23.1975 31.2983 23.3775 30.964C24.3031 29.0356 24.3803 24.0987 24.0203 22.2988C23.9432 21.7845 23.9689 21.4502 24.0974 21.1931C24.6374 20.0875 26.823 20.9874 27.9287 20.7817C27.8772 20.756 27.9287 19.4703 28.3401 18.6475C28.6229 18.0561 29.1115 17.6447 29.8571 18.0304C32.3513 19.2904 33.5598 22.0159 32.8141 23.5073C32.4284 24.3301 31.5028 24.7929 29.9086 24.5615L28.9058 24.3044ZM35.874 7.71954C37.0825 7.53955 38.9081 9.2366 39.0366 10.0594C39.1652 10.8822 37.5967 14.1478 36.8768 14.2506C35.9768 14.3792 34.5626 14.0449 34.4083 13.0678C34.254 11.9622 34.8454 7.87382 35.874 7.71954ZM33.8426 17.3876C33.7912 17.1048 33.5341 16.8733 33.5084 16.6676C33.4055 15.9734 35.874 15.2277 36.4139 15.1249C37.3396 14.9706 38.1624 15.1763 38.291 16.102C38.5224 17.6704 34.2798 25.9243 34.7426 28.8299C34.8969 29.8327 35.3597 30.6298 36.2339 31.2212C36.3882 31.324 36.4654 31.4526 36.4911 31.5554C36.5939 32.1725 35.9254 32.8154 35.0769 32.9439C33.8683 33.1239 32.197 32.2497 31.6313 28.5984C31.1685 25.8472 34.0226 18.5961 33.8426 17.3876ZM104.887 3.70832H106.61V4.17116H106.019V5.55965H105.453V4.17116H104.862V3.70832H104.887ZM106.867 3.70832H107.613L107.896 4.83969L108.179 3.70832H108.924V5.55965H108.462V4.14544L108.102 5.55965H107.69L107.33 4.14544V5.55965H106.867V3.70832ZM3.32139 50.0687C4.16992 49.863 60.6612 36.698 65.0324 36.1838C65.2124 36.158 75.8576 33.8696 76.9632 33.4325C77.3232 32.0954 76.7061 30.8097 76.7061 30.8097C49.6304 36.5437 3.86136 44.489 2.03574 44.6176C1.49577 44.6433 1.13579 44.7204 0.852948 44.9519C-0.432699 45.8775 1.23864 48.7317 1.90718 49.6573C1.88146 49.6316 2.39572 50.3002 3.32139 50.0687ZM119.57 19.5218C113.758 19.7018 106.173 19.8303 103.19 19.8046C102.908 19.8046 102.676 19.8818 102.496 20.036C101.93 20.6017 102.265 22.0159 102.908 22.6588C103.036 22.813 103.216 22.9416 103.396 22.993C104.682 23.0187 106.533 23.0187 108.693 23.0444C102.856 24.4844 94.8594 26.5157 94.9366 26.4643C93.8823 27.6728 95.2965 29.1641 95.6822 29.3698C95.6822 29.3698 106.585 26.5671 112.704 25.1272C111.856 25.6672 111.059 26.0786 110.364 26.3357C110.107 26.4386 109.876 26.49 109.747 26.6185C109.362 27.0042 110.184 28.3927 111.213 29.4213C112.087 30.3212 113.116 30.964 113.604 30.5526C114.067 30.1669 115.455 28.9327 117.153 27.2871C118.438 26.0271 119.775 24.4587 121.267 23.0444C123.246 21.1417 119.57 19.5218 119.57 19.5218Z" fill="#0B2545"/>
</g>
</g>
<defs>
<clipPath id="clip0_272_8792">
<rect width="122" height="51" fill="#0B2545"/>
</clipPath>
<clipPath id="clip1_272_8792">
<rect width="122" height="51" fill="#0B2545"/>
</clipPath>
</defs>
</svg>