<svg width="16" height="16" viewBox="0 0 100 100" fill="none" xmlns="http://www.w3.org/2000/svg" role="img" aria-label="StrydeOS Pink">
  <defs>
    <linearGradient id="fvp16-c" x1="0.1" y1="0" x2="0.85" y2="1">
      <stop offset="0%" stop-color="#FF7EB3" stop-opacity="0.58"/>
      <stop offset="100%" stop-color="#3A0A1F" stop-opacity="0.72"/>
    </linearGradient>
    <radialGradient id="fvp16-r" cx="28%" cy="24%" r="60%">
      <stop offset="0%" stop-color="#FFB3D1" stop-opacity="0.42"/>
      <stop offset="100%" stop-color="#E74C8A" stop-opacity="0"/>
    </radialGradient>
    <linearGradient id="fvp16-t" x1="0.05" y1="1" x2="0.35" y2="0">
      <stop offset="0%" stop-color="white" stop-opacity="0.55"/>
      <stop offset="100%" stop-color="white" stop-opacity="0.97"/>
    </linearGradient>
    <linearGradient id="fvp16-b" x1="0.1" y1="0" x2="0.4" y2="1">
      <stop offset="0%" stop-color="#FFB3D1" stop-opacity="0.65"/>
      <stop offset="100%" stop-color="#E74C8A" stop-opacity="0.06"/>
    </linearGradient>
    <clipPath id="fvp16-p"><rect x="35" y="20" width="22" height="60" rx="5"/></clipPath>
    <clipPath id="fvp16-a"><polygon points="35,52 57,40 57,20 35,20"/></clipPath>
  </defs>
  <rect width="100" height="100" rx="24" fill="url(#fvp16-c)"/>
  <rect width="100" height="100" rx="24" fill="url(#fvp16-r)"/>
  <rect width="100" height="100" rx="24" fill="none" stroke="url(#fvp16-b)" stroke-width="1.2"/>
  <rect x="35" y="20" width="22" height="60" rx="5" fill="white" fill-opacity="0.07"/>
  <rect x="35" y="46" width="22" height="34" rx="5" fill="black" fill-opacity="0.10"/>
  <g clip-path="url(#fvp16-p)">
    <polyline points="32,80 46,72 60,80" stroke="white" stroke-opacity="0.20" stroke-width="3" stroke-linecap="round" stroke-linejoin="round" fill="none"/>
    <polyline points="32,72 46,64 60,72" stroke="white" stroke-opacity="0.42" stroke-width="3.5" stroke-linecap="round" stroke-linejoin="round" fill="none"/>
    <polyline points="32,64 46,56 60,64" stroke="white" stroke-opacity="0.72" stroke-width="4.2" stroke-linecap="round" stroke-linejoin="round" fill="none"/>
  </g>
  <rect x="35" y="20" width="22" height="60" rx="5" fill="url(#fvp16-t)" clip-path="url(#fvp16-a)"/>
  <line x1="33" y1="52" x2="59" y2="39" stroke="white" stroke-width="1.2" stroke-opacity="0.55" stroke-linecap="round"/>
</svg>
