<svg xmlns="http://www.w3.org/2000/svg" viewBox="0 0 243 59"><g fill="#FFF"><path d="M154.125 27.284c-8.312 0-14.998 5.939-14.998 16.062 0 20.895 29.559 20.863 29.559-.564 0-9.185-5.873-15.498-14.561-15.498zm-.25 27.498c-12.067 0-12.339-23.373.126-23.373 12.216 0 11.963 23.373-.126 23.373zM35.353 49.95l-1.271-1.143c-.698-.416-1.517-.322-2.24.24-3.156 2.453-6.008 4.25-10.752 4.25-8.608 0-15.612-7.215-15.612-16.082 0-8.9 7.004-16.142 15.612-16.142 3.656 0 7.66 1.576 10.671 4.178.702.702 1.455.832 2.055.54l1.509-1.511c.692-.69.763-1.833-.1-2.688-4.395-3.749-8.751-5.42-14.125-5.42C9.464 16.172.001 25.636.001 37.269c0 11.572 9.463 20.984 21.098 20.984 5.474 0 10.418-1.934 14.226-5.687.767-.753.742-2.084.028-2.616zM45.784 13.848h-1.386a2.056 2.056 0 00-2.056 2.057v40.259c0 1.135.92 2.055 2.056 2.055h1.386c1.137 0 2.058-.92 2.058-2.055V15.905a2.057 2.057 0 00-2.058-2.057zM58.413 27.973h-1.386c-1.136 0-2.056.92-2.056 2.056v26.135c0 1.135.92 2.055 2.056 2.055h1.386c1.137 0 2.058-.92 2.058-2.055V30.029a2.056 2.056 0 00-2.058-2.056zM103.484 27.973h-1.387c-1.136 0-2.057.92-2.057 2.056v26.135c0 1.135.921 2.055 2.057 2.055h1.387c1.135 0 2.056-.92 2.056-2.055V30.029a2.056 2.056 0 00-2.056-2.056zM124.722 40.292c.4-.399 8.333-8.861 8.369-8.901 1.228-1.396.18-3.488-1.587-3.417-.898 0-1.617-.104-2.315.569l-11.142 11.66c0-33.461.007-21.716.007-24.298 0-1.091-.894-2.056-2.056-2.056h-1.397a2.057 2.057 0 00-2.056 2.057v40.258c0 1.135.921 2.055 2.056 2.055h1.395c1.17 0 2.056-.976 2.056-2.053 0-.957-.007 3.401-.007-9.318 0 0 2.338-2.65 2.998-3.309 8.791 2.03 10.245 9.004 10.502 12.604-.056.809.661 2.084 2.054 2.084h1.012c1.21 0 2.123-1.046 2.05-2.123-.282-4.12-1.573-13.206-11.939-15.812zM80.984 27.284c-3.902 0-7.062 2.133-8.562 4.945v-2.103c.034-1.263-.947-2.155-2.048-2.155h-.866c-1.129 0-2.055.91-2.055 2.056 0 2.648.001-9.594.024 25.901a2.05 2.05 0 002.032 2.287h1.417a2.053 2.053 0 002.056-2.055c0-1.424-.006 5.288-.006-14.744 0-6.856 4.188-9.633 7.75-9.633 5.188 0 7 4.125 7 8.998 0 20.942-.005 13.877-.005 15.381 0 1.155.936 2.055 2.055 2.055h1.394c1.135 0 2.056-.92 2.056-2.055V40.157c-.002-10.373-6.828-12.873-12.242-12.873zM57.721 16.036c-4.567 0-4.552 6.812-.126 6.812 4.731 0 4.559-6.812.126-6.812zM102.79 16.036c-4.593 0-4.526 6.812-.125 6.812 4.729 0 4.56-6.812.125-6.812z"/></g><path fill="#03ABD5" d="M186.958 56.099v.016a.766.766 0 01.004-.043l-.004.027z"/><path fill="#FFF" d="M205.095 24.268a1 1 0 111.31-1.511c1.77 1.532 4.1 1.378 5.646.007a1 1 0 111.326 1.498c-2.287 2.028-5.75 2.203-8.282.006z"/><path fill="#63CFE3" d="M192.744 4.892c.294-.302.14-.645.764-1.148 1.948-1.571 8.492-1.39 9.144.924.19.677.4.317 3.713 1.08.195.045.867.284.923-.047.04-.24-.712-1.205-.863-1.394-4.324-5.423-12.555-5.723-17.246-.461-.218.244-1.573 1.717-1.114 1.965.286.155.495-.05 4.148-.661.227-.04.4-.123.531-.258z"/><path fill="#FFF" d="M197.747 9.118c1.35.003 3.074-3.027 2.995-3.589-.236-1.685-5.784-1.714-5.899-.004-.038.56 1.562 3.591 2.904 3.593z"/><path fill="#63CFE3" d="M208.502 8.365c-.123-.429-.196-.572-.632-.728-.426-.152-2.068-.67-4.517-.928-.629-.066-1.166-.263-1.549.312-.388.583-.725 1.184-1.168 1.733-2.255 2.795-3.992 3.007-6.63-1.302-.776-1.267-1.973-.787-3.222-.562-.844.152-3.338.735-3.66.923-.403.234-.521.899-.65 1.66a11.283 11.283 0 006.326 12.111c.28.132.702.261.645.646-.082.554-1.162.933-1.592 1.15-3.753 1.899-7.404 4.981-10.289 9.14-4.846 6.986-6.443 15.051-6.811 23.578a2.037 2.037 0 002.033 2.149h4.541c.972 0 1.78-.68 1.989-1.586.491-4.731 1.538-10.179 3.664-14.431 3.344-6.687 8.355-11.396 13.215-13.742.92-.444 2-.784 1.125-1.881-5.162-6.472-1.114-15.211 6.203-16.295 1.213-.179 1.466-.25.979-1.947z"/><path fill="#00C1DE" d="M228.558 27.109c-.314-.218-.857-.481-.869-.867-.011-.363.521-.531.807-.708 8.71-5.406 4.759-18.749-5.332-18.749-2.697 0-5.256 1.145-6.853 2.683-.545.525-2.116 1.854-1.363 2.689.283.314.696.553 1.005.85a9.993 9.993 0 013.062 7.198c0 2.089-.63 3.8-1.697 5.578-.348.579-1.013 1.099-.328 1.682 1.466 1.247 7.609 4.227 12.355 11.771 2.441 3.879 4.377 8.55 5.303 17.016 0 1 .862 1.993 2.037 1.993h4.286c1.083 0 1.96-.846 2.03-1.909-.252-11.26-5.213-22.833-14.443-29.227z"/><path fill="#03ABD5" d="M209.432 53.064c-.018.008-.032.02-.051.027.018-.008.031-.019.051-.027z"/><path fill="#FFF" d="M230.93 56.251c-.347-2.854-.789-5.405-1.685-8.285-2.093-6.734-6.26-13.454-12.638-16.387-1.266-.582-5.098-1.919-5.963-.923-.477.55-.268 1.387.097 5.113 1.164 11.898 1.32 13.125 1.323 13.694.007 1.092-2.164 3.113-2.586 3.498-.308.328-.946.327-1.282-.037-.335-.362-2.535-2.428-2.537-3.44-.004-2.408 1.698-17.52 1.706-18.034.03-1.872-2.209-1.123-3.21-.9-7.922 1.763-13.245 9.613-15.667 17.423-.953 3.072-1.602 6.941-1.667 8.141a2.039 2.039 0 002.032 2.136h40.045c1.144-.001 2.032-.949 2.032-1.999z"/></svg>
